HIERARCHY
ROOT RootJoint
{
    OFFSET   0.000000   0.000000   0.000000
    CHANNELS 6 Xposition Yposition Zposition Xrotation Yrotation Zrotation
    JOINT pelvis_lowerback
    {
        OFFSET   0.000000   0.093605   0.000000
        CHANNELS 3 Xrotation Yrotation Zrotation
        JOINT lowerback_torso
        {
            OFFSET   0.000000   0.100000   0.000000
            CHANNELS 3 Xrotation Yrotation Zrotation
            JOINT torso_head
            {
                OFFSET   0.000000   0.282350   0.000000
                CHANNELS 3 Xrotation Yrotation Zrotation
                End Site
                {
                    OFFSET   0.000000   0.192650   0.000000
                }
            }
            JOINT rTorso_Clavicle
            {
                OFFSET  -0.001000   0.157500   0.000000
                CHANNELS 3 Xrotation Yrotation Zrotation
                JOINT rShoulder
                {
                    OFFSET  -0.117647   0.000000   0.000000
                    CHANNELS 3 Xrotation Yrotation Zrotation
                    JOINT rElbow
                    {
                        OFFSET  -0.245000   0.000000   0.000000
                        CHANNELS 3 Xrotation Yrotation Zrotation
                        JOINT rWrist
                        {
                            OFFSET  -0.240000   0.000000   0.000000
                            CHANNELS 3 Xrotation Yrotation Zrotation
                            End Site
                            {
                                OFFSET  -0.116353  -0.002500   0.000000
                            }
                        }
                    }
                }
            }
            JOINT lTorso_Clavicle
            {
                OFFSET   0.001000   0.157500   0.000000
                CHANNELS 3 Xrotation Yrotation Zrotation
                JOINT lShoulder
                {
                    OFFSET   0.117647   0.000000   0.000000
                    CHANNELS 3 Xrotation Yrotation Zrotation
                    JOINT lElbow
                    {
                        OFFSET   0.245000   0.000000   0.000000
                        CHANNELS 3 Xrotation Yrotation Zrotation
                        JOINT lWrist
                        {
                            OFFSET   0.240000   0.000000   0.000000
                            CHANNELS 3 Xrotation Yrotation Zrotation
                            End Site
                            {
                                OFFSET   0.116353  -0.002500   0.000000
                            }
                        }
                    }
                }
            }
        }
    }
    JOINT rHip
    {
        OFFSET  -0.100000  -0.051395   0.000000
        CHANNELS 3 Xrotation Yrotation Zrotation
        JOINT rKnee
        {
            OFFSET   0.000000  -0.410000   0.000000
            CHANNELS 3 Xrotation Yrotation Zrotation
            JOINT rAnkle
            {
                OFFSET   0.000000  -0.390000   0.000000
                CHANNELS 3 Xrotation Yrotation Zrotation
                JOINT rToeJoint
                {
                    OFFSET   0.000000  -0.050000   0.130000
                    CHANNELS 3 Xrotation Yrotation Zrotation
                    End Site
                    {
                        OFFSET  -0.010000   0.002000   0.060000
                    }
                }
            }
        }
    }
    JOINT lHip
    {
        OFFSET   0.100000  -0.051395   0.000000
        CHANNELS 3 Xrotation Yrotation Zrotation
        JOINT lKnee
        {
            OFFSET   0.000000  -0.410000   0.000000
            CHANNELS 3 Xrotation Yrotation Zrotation
            JOINT lAnkle
            {
                OFFSET   0.000000  -0.390000   0.000000
                CHANNELS 3 Xrotation Yrotation Zrotation
                JOINT lToeJoint
                {
                    OFFSET   0.000000  -0.050000   0.130000
                    CHANNELS 3 Xrotation Yrotation Zrotation
                    End Site
                    {
                        OFFSET   0.010000   0.002000   0.060000
                    }
                }
            }
        }
    }
}
MOTION
Frames: 14
Frame Time:   0.008333
 -0.853228   0.866499   1.042140 -162.229663  21.402322 172.064453  17.157201  -4.663954   3.984008   0.414619  -1.905111   2.737769   0.921000   0.149609  -1.393868   5.249800  -9.829017   6.385707  11.273915  -3.650989  47.023772   0.002690  27.122748  -0.000217  -1.017813   2.493675  -7.423694   3.919045   4.517217  -2.972934   0.819873  -1.480025 -46.025327   0.002681 -68.120355   0.004038  -0.568951  -5.698232   6.020351 -21.115629  -2.760077  -5.097743  33.885515  -0.001130  -0.020806  -5.009298 -10.921482   4.811028   0.146120  -0.003630   0.005247  13.000155  -0.590088   4.618809  58.542083   0.019578   0.020656  -0.653993   2.427064   2.014350 -18.349520   0.012406   0.003658
 -0.844465   0.861763   1.028934 -162.138413  21.011291 172.206513  17.356364  -4.791335   3.995462   0.329808  -1.983277   2.923223   0.887748  -0.013808  -1.304957   5.242047  -9.853529   6.449694  11.229910  -3.708586  46.871182   0.002388  27.279753  -0.000421  -1.019103   2.338053  -7.270339   3.975717   4.479537  -2.952629   0.763634  -1.335761 -45.936920   0.008673 -67.289315   0.007622  -0.567559  -6.092500   5.872454 -21.091057  -2.755607  -5.015735  34.375883  -0.001758  -0.014710  -4.882200 -10.826642   4.255184   0.397260  -0.001903   0.005267  12.055304  -0.568562   4.565028  61.575182   0.027783   0.023363  -1.849172   2.718575   2.070113 -16.801399   0.011754   0.011335
 -0.835652   0.856424   1.015742 -161.947845  20.638648 172.312170  17.608805  -4.853354   3.989389   0.314924  -2.011312   3.080830   0.869824  -0.172422  -1.209014   5.200705  -9.838501   6.501614  11.158768  -3.739713  46.705621   0.002077  27.433330  -0.000709  -1.017025   2.197611  -7.137735   4.049010   4.455772  -2.969217   0.730960  -1.167340 -45.844639   0.013317 -66.446904   0.010939  -0.598636  -6.144944   5.793136 -20.894693  -2.769485  -4.887978  35.080458  -0.002810  -0.009062  -4.752729 -10.741913   3.735565   0.630920  -0.000626   0.005112  11.060515  -0.527729   4.480236  64.632509   0.035146   0.024077  -2.982332   2.994895   2.130494 -15.564564   0.011441   0.015315
 -0.826774   0.850509   1.002524 -161.730305  20.289370 172.414693  17.852031  -4.861764   3.964827   0.324966  -1.989211   3.207534   0.860764  -0.320694  -1.118380   5.146814  -9.807150   6.539889  11.078607  -3.757676  46.540003   0.001772  27.582477  -0.001012  -1.010099   2.091572  -7.026201   4.144480   4.460430  -3.004966   0.725070  -0.989954 -45.765548   0.016781 -65.642766   0.014032  -0.641607  -6.057843   5.713872 -20.567780  -2.802008  -4.726872  35.820926  -0.003866  -0.004475  -4.627324 -10.664429   3.250948   0.853596   0.000279   0.004896  10.021884  -0.481149   4.361943  67.520966   0.040444   0.022828  -4.039900   3.251461   2.192854 -14.443327   0.011382   0.017385
 -0.817830   0.844001   0.989285 -161.507052  19.954605 172.523001  18.077175  -4.828768   3.922909   0.341770  -1.927614   3.306692   0.854676  -0.458683  -1.034339   5.085945  -9.765628   6.565258  10.994347  -3.766828  46.377196   0.001480  27.726211  -0.001298  -0.999631   2.014826  -6.931627   4.254809   4.488900  -3.050078   0.738779  -0.808510 -45.697098   0.019326 -64.882759   0.016822  -0.689051  -5.909688   5.631013 -20.141719  -2.848553  -4.541133  36.558791  -0.004795  -0.000819  -4.507706 -10.593191   2.798917   1.062947   0.000890   0.004661   8.945610  -0.433129   4.219801  70.206689   0.043767   0.020503  -5.028548   3.489456   2.256312 -13.422063   0.011408   0.018198
 -0.808824   0.836878   0.976030 -161.283890  19.628415 172.638620  18.284167  -4.763618   3.865881   0.359786  -1.835779   3.381950   0.849756  -0.586989  -0.956963   5.020182  -9.716263   6.578491  10.907692  -3.768994  46.217609   0.001203  27.864274  -0.001551  -0.986490   1.962374  -6.852378   4.373505   4.535051  -3.098577   0.765716  -0.626433 -45.635959   0.021103 -64.167053   0.019195  -0.738237  -5.729213   5.550220 -19.639515  -2.904964  -4.337007  37.283096  -0.005555   0.002084  -4.394108 -10.527461   2.377273   1.258927   0.001280   0.004428   7.843270  -0.384630   4.062440  72.692327   0.045443   0.017764  -5.953257   3.710225   2.320054 -12.491467   0.011413   0.018191
 -0.800478   0.832122   0.963861 -160.793796  19.183364 172.126294  18.892004  -4.607941   4.302920   0.502705  -1.688870   3.630184   0.846904  -0.705831  -0.873774   4.852738  -9.532716   6.651094  10.737541  -3.701672  46.020309   0.001209  27.996669  -0.002040  -0.977593   1.900949  -6.881347   4.458094   4.476359  -3.377506   0.769716  -0.502035 -45.684602   0.018554 -63.475814   0.018219  -0.792811  -5.454283   5.463473 -19.643483  -2.911636  -3.792384  39.981913  -0.004834   0.015250  -3.388577 -10.409964   2.122407   1.502276   0.002649   0.004692   6.858865  -0.453976   4.302881  74.893485   0.044631   0.011859  -6.811972   3.919759   2.387223 -11.593621   0.011667   0.016665
 -0.792390   0.828014   0.952444 -160.389830  18.732770 171.665973  19.622192  -4.446826   4.650588   0.480057  -1.595330   3.892019   0.730264  -0.831372  -0.670352   4.535256  -9.233652   6.802714  10.499508  -3.614450  45.690411   0.000918  27.924648  -0.001245  -0.924450   1.788929  -6.650000   4.406308   4.453031  -3.698398   0.676431  -0.092504 -45.685493   0.025149 -61.971784   0.029477  -0.804948  -5.731324   5.159282 -19.630767  -3.006084  -3.229177  42.697612  -0.004846   0.025145  -4.308481 -10.291166   1.527790   1.834972   0.004277   0.005446   5.461648  -0.452135   4.507966  77.201031   0.046603   0.007214  -8.001279   4.142634   2.572820 -11.011769   0.011118   0.015062
 -0.784454   0.824282   0.941226 -159.984326  18.317611 171.253161  20.332789  -4.241959   4.912358   0.471798  -1.455994   4.111691   0.613843  -0.953834  -0.470110   4.209163  -8.920873   6.933197  10.252795  -3.510679  45.371631   0.000733  27.863605  -0.000650  -0.874654   1.672982  -6.412956   4.383885   4.469761  -3.986328   0.614107   0.344840 -45.653674   0.029843 -60.497642   0.038215  -0.853640  -5.634178   4.971078 -19.442423  -3.105883  -2.685825  45.078858  -0.004497   0.030862  -5.293718 -10.169201   0.946230   2.000589   0.004405   0.005185   3.934011  -0.419378   4.619533  79.364235   0.047826   0.002586  -9.119325   4.345945   2.750674 -10.530675   0.010651   0.013325
 -0.777076   0.821381   0.930656 -159.565568  18.210296 170.720132  21.078663  -3.871293   5.204117   0.484122  -1.181442   4.305604   0.503093  -1.064468  -0.287460   3.843259  -8.548504   7.030133   9.970281  -3.367583  45.039277   0.000598  27.823933  -0.000286  -0.818402   1.625758  -6.228038   4.388508   4.520123  -4.295032   0.579861   0.783578 -45.635381   0.029887 -59.098104   0.041354  -0.916946  -5.373157   4.858621 -19.209260  -3.351556  -2.110274  47.328567  -0.006631   0.026885  -7.401820 -10.252164   0.431183   1.318523   0.001727   0.004274   2.322386  -0.324737   4.691029  81.320427   0.043979  -0.004134 -10.164854   4.531862   2.920015 -10.093970   0.009712   0.010870
 -0.769880   0.818945   0.920476 -159.159521  18.102771 170.197105  21.788873  -3.507451   5.431695   0.525258  -0.888177   4.485460   0.410100  -1.169928  -0.111096   3.486271  -8.183916   7.113184   9.693575  -3.217377  44.731945   0.000498  27.798962  -0.000084  -0.756457   1.647988  -6.051226   4.412502   4.594496  -4.558734   0.565230   1.211903 -45.606386   0.028524 -57.784433   0.042255  -0.982596  -5.057451   4.749219 -18.842899  -3.432265  -1.520338  49.239856  -0.005981   0.025536  -9.193092 -10.041197  -0.069020   0.596454  -0.001190   0.000798   0.645558  -0.290270   4.733785  83.118407   0.039465  -0.009547 -11.144569   4.702904   3.083351  -9.706088   0.008789   0.008711
 -0.762819   0.816779   0.910501 -158.750741  18.011156 169.706498  22.452193  -3.138061   5.587609   0.581813  -0.584309   4.627229   0.329372  -1.268886   0.050462   3.152404  -7.842311   7.180252   9.434593  -3.073976  44.443850   0.000424  27.779969   0.000038  -0.693343   1.701740  -5.882486   4.450604   4.691658  -4.781192   0.564573   1.630033 -45.565066   0.026790 -56.553482   0.042238  -1.047716  -4.722633   4.654723 -18.394311  -3.505635  -0.957987  50.951933  -0.005486   0.023746 -10.777863  -9.818086  -0.528957  -0.152887  -0.003342  -0.002092  -1.028340  -0.263687   4.739124  84.766336   0.034988  -0.013450 -12.062141   4.859733   3.238787  -9.359124   0.007944   0.006921
 -0.755869   0.814781   0.900639 -158.337457  17.937944 169.245255  23.064432  -2.767231   5.685613   0.644143  -0.274838   4.730370   0.256941  -1.361210   0.196689   2.844193  -7.526365   7.229706   9.195302  -2.941753  44.168763   0.000372  27.763017   0.000118  -0.631488   1.763101  -5.730731   4.500269   4.807941  -4.973020   0.575325   2.037190 -45.515687   0.024899 -55.400087   0.041674  -1.112035  -4.378331   4.582583 -17.887473  -3.582574  -0.426053  52.527138  -0.005277   0.021617 -12.206612  -9.601614  -0.956565  -0.931382  -0.004865  -0.004293  -2.665018  -0.236587   4.720769  86.283941   0.030701  -0.016036 -12.920867   5.003583   3.386027  -9.047136   0.007154   0.005462
 -0.749515   0.813451   0.891151 -158.083274  17.875598 169.156473  23.671384  -2.428751   5.539158   0.559414  -0.141494   4.717631   0.234581  -1.446562   0.353572   2.483700  -7.247502   7.263452   8.822403  -2.829064  43.975972   0.000635  27.638700   0.000438  -0.606193   1.824559  -5.526256   4.548682   4.979856  -5.169842   0.565826   2.636946 -45.267801   0.026899 -54.045385   0.044401  -1.189775  -4.309338   4.332736 -17.214524  -3.496065  -0.249692  53.537495  -0.003905   0.018960 -14.105416  -9.101377  -1.284802  -0.585352  -0.003302  -0.001378  -4.408656  -0.273660   4.262056  86.720888   0.025022  -0.014866 -13.768800   5.212988   3.409186  -8.676154   0.007257   0.004345
